<mxfile host="app.diagrams.net" agent="Mozilla/5.0 (Windows NT 10.0; Win64; x64) AppleWebKit/537.36 (KHTML, like Gecko) Chrome/141.0.0.0 Safari/537.36" version="28.2.7">
  <diagram name="Page-1" id="dgfeq_0ailcy9usqD-1H">
    <mxGraphModel dx="1188" dy="626" grid="1" gridSize="10" guides="1" tooltips="1" connect="1" arrows="1" fold="1" page="1" pageScale="1" pageWidth="850" pageHeight="1100" math="0" shadow="0">
      <root>
        <mxCell id="0" />
        <mxCell id="1" parent="0" />
        <mxCell id="dc8ZZ-z_gfKn3AHlhuku-3" value="" style="rounded=0;whiteSpace=wrap;html=1;fontSize=10;" vertex="1" parent="1">
          <mxGeometry x="260" y="100" width="320" height="500" as="geometry" />
        </mxCell>
        <mxCell id="dc8ZZ-z_gfKn3AHlhuku-35" style="edgeStyle=orthogonalEdgeStyle;rounded=0;orthogonalLoop=1;jettySize=auto;html=1;entryX=0;entryY=0.5;entryDx=0;entryDy=0;fontSize=10;" edge="1" parent="1" source="dc8ZZ-z_gfKn3AHlhuku-1" target="dc8ZZ-z_gfKn3AHlhuku-25">
          <mxGeometry relative="1" as="geometry" />
        </mxCell>
        <mxCell id="dc8ZZ-z_gfKn3AHlhuku-1" value="Vistor" style="shape=umlActor;verticalLabelPosition=bottom;verticalAlign=top;html=1;outlineConnect=0;fontSize=10;" vertex="1" parent="1">
          <mxGeometry x="100" y="180" width="30" height="60" as="geometry" />
        </mxCell>
        <mxCell id="dc8ZZ-z_gfKn3AHlhuku-41" style="edgeStyle=orthogonalEdgeStyle;rounded=0;orthogonalLoop=1;jettySize=auto;html=1;entryX=1;entryY=0.5;entryDx=0;entryDy=0;fontSize=10;" edge="1" parent="1" source="dc8ZZ-z_gfKn3AHlhuku-2" target="dc8ZZ-z_gfKn3AHlhuku-16">
          <mxGeometry relative="1" as="geometry" />
        </mxCell>
        <mxCell id="dc8ZZ-z_gfKn3AHlhuku-42" style="edgeStyle=orthogonalEdgeStyle;rounded=0;orthogonalLoop=1;jettySize=auto;html=1;entryX=1;entryY=0.5;entryDx=0;entryDy=0;fontSize=10;" edge="1" parent="1" source="dc8ZZ-z_gfKn3AHlhuku-2" target="dc8ZZ-z_gfKn3AHlhuku-18">
          <mxGeometry relative="1" as="geometry" />
        </mxCell>
        <mxCell id="dc8ZZ-z_gfKn3AHlhuku-43" style="edgeStyle=orthogonalEdgeStyle;rounded=0;orthogonalLoop=1;jettySize=auto;html=1;entryX=1;entryY=0.5;entryDx=0;entryDy=0;fontSize=10;" edge="1" parent="1" source="dc8ZZ-z_gfKn3AHlhuku-2" target="dc8ZZ-z_gfKn3AHlhuku-14">
          <mxGeometry relative="1" as="geometry" />
        </mxCell>
        <mxCell id="dc8ZZ-z_gfKn3AHlhuku-44" style="edgeStyle=orthogonalEdgeStyle;rounded=0;orthogonalLoop=1;jettySize=auto;html=1;entryX=1;entryY=0.5;entryDx=0;entryDy=0;fontSize=10;" edge="1" parent="1" source="dc8ZZ-z_gfKn3AHlhuku-2" target="dc8ZZ-z_gfKn3AHlhuku-19">
          <mxGeometry relative="1" as="geometry" />
        </mxCell>
        <mxCell id="dc8ZZ-z_gfKn3AHlhuku-45" style="edgeStyle=orthogonalEdgeStyle;rounded=0;orthogonalLoop=1;jettySize=auto;html=1;entryX=1;entryY=0.5;entryDx=0;entryDy=0;fontSize=10;" edge="1" parent="1" source="dc8ZZ-z_gfKn3AHlhuku-2" target="dc8ZZ-z_gfKn3AHlhuku-29">
          <mxGeometry relative="1" as="geometry" />
        </mxCell>
        <mxCell id="dc8ZZ-z_gfKn3AHlhuku-2" value="Administrator" style="shape=umlActor;verticalLabelPosition=bottom;verticalAlign=top;html=1;outlineConnect=0;fontSize=10;" vertex="1" parent="1">
          <mxGeometry x="670" y="280" width="30" height="60" as="geometry" />
        </mxCell>
        <mxCell id="dc8ZZ-z_gfKn3AHlhuku-5" value="Museum &amp;amp; Artist Information System" style="text;html=1;whiteSpace=wrap;strokeColor=none;fillColor=none;align=center;verticalAlign=middle;rounded=0;fontSize=10;" vertex="1" parent="1">
          <mxGeometry x="345" y="110" width="160" height="30" as="geometry" />
        </mxCell>
        <mxCell id="dc8ZZ-z_gfKn3AHlhuku-21" style="edgeStyle=orthogonalEdgeStyle;rounded=0;orthogonalLoop=1;jettySize=auto;html=1;fontSize=10;" edge="1" parent="1" source="dc8ZZ-z_gfKn3AHlhuku-7" target="dc8ZZ-z_gfKn3AHlhuku-14">
          <mxGeometry relative="1" as="geometry" />
        </mxCell>
        <mxCell id="dc8ZZ-z_gfKn3AHlhuku-22" style="edgeStyle=orthogonalEdgeStyle;rounded=0;orthogonalLoop=1;jettySize=auto;html=1;fontSize=10;" edge="1" parent="1" source="dc8ZZ-z_gfKn3AHlhuku-7" target="dc8ZZ-z_gfKn3AHlhuku-18">
          <mxGeometry relative="1" as="geometry" />
        </mxCell>
        <mxCell id="dc8ZZ-z_gfKn3AHlhuku-37" style="edgeStyle=orthogonalEdgeStyle;rounded=0;orthogonalLoop=1;jettySize=auto;html=1;entryX=0;entryY=0.5;entryDx=0;entryDy=0;fontSize=10;" edge="1" parent="1" source="dc8ZZ-z_gfKn3AHlhuku-7" target="dc8ZZ-z_gfKn3AHlhuku-24">
          <mxGeometry relative="1" as="geometry" />
        </mxCell>
        <mxCell id="dc8ZZ-z_gfKn3AHlhuku-39" style="edgeStyle=orthogonalEdgeStyle;rounded=0;orthogonalLoop=1;jettySize=auto;html=1;entryX=0;entryY=0.5;entryDx=0;entryDy=0;fontSize=10;" edge="1" parent="1" source="dc8ZZ-z_gfKn3AHlhuku-7" target="dc8ZZ-z_gfKn3AHlhuku-29">
          <mxGeometry relative="1" as="geometry" />
        </mxCell>
        <mxCell id="dc8ZZ-z_gfKn3AHlhuku-40" style="edgeStyle=orthogonalEdgeStyle;rounded=0;orthogonalLoop=1;jettySize=auto;html=1;entryX=0;entryY=0.5;entryDx=0;entryDy=0;fontSize=10;" edge="1" parent="1" source="dc8ZZ-z_gfKn3AHlhuku-7" target="dc8ZZ-z_gfKn3AHlhuku-26">
          <mxGeometry relative="1" as="geometry" />
        </mxCell>
        <mxCell id="dc8ZZ-z_gfKn3AHlhuku-46" style="edgeStyle=orthogonalEdgeStyle;rounded=0;orthogonalLoop=1;jettySize=auto;html=1;entryX=0.5;entryY=1;entryDx=0;entryDy=0;fontSize=10;" edge="1" parent="1" source="dc8ZZ-z_gfKn3AHlhuku-7" target="dc8ZZ-z_gfKn3AHlhuku-28">
          <mxGeometry relative="1" as="geometry">
            <Array as="points">
              <mxPoint x="155" y="290" />
              <mxPoint x="495" y="290" />
            </Array>
          </mxGeometry>
        </mxCell>
        <mxCell id="dc8ZZ-z_gfKn3AHlhuku-47" style="edgeStyle=orthogonalEdgeStyle;rounded=0;orthogonalLoop=1;jettySize=auto;html=1;entryX=0.5;entryY=1;entryDx=0;entryDy=0;fontSize=10;" edge="1" parent="1" source="dc8ZZ-z_gfKn3AHlhuku-7" target="dc8ZZ-z_gfKn3AHlhuku-25">
          <mxGeometry relative="1" as="geometry">
            <Array as="points">
              <mxPoint x="155" y="350" />
              <mxPoint x="345" y="350" />
            </Array>
          </mxGeometry>
        </mxCell>
        <mxCell id="dc8ZZ-z_gfKn3AHlhuku-48" style="edgeStyle=orthogonalEdgeStyle;rounded=0;orthogonalLoop=1;jettySize=auto;html=1;entryX=0.5;entryY=1;entryDx=0;entryDy=0;fontSize=10;" edge="1" parent="1" source="dc8ZZ-z_gfKn3AHlhuku-7" target="dc8ZZ-z_gfKn3AHlhuku-27">
          <mxGeometry relative="1" as="geometry">
            <Array as="points">
              <mxPoint x="155" y="360" />
              <mxPoint x="540" y="360" />
              <mxPoint x="540" y="190" />
            </Array>
          </mxGeometry>
        </mxCell>
        <mxCell id="dc8ZZ-z_gfKn3AHlhuku-7" value="Curator" style="shape=umlActor;verticalLabelPosition=bottom;verticalAlign=top;html=1;outlineConnect=0;fontSize=10;" vertex="1" parent="1">
          <mxGeometry x="140" y="450" width="30" height="60" as="geometry" />
        </mxCell>
        <mxCell id="dc8ZZ-z_gfKn3AHlhuku-14" value="Manage Artist Records" style="ellipse;whiteSpace=wrap;html=1;fontSize=10;" vertex="1" parent="1">
          <mxGeometry x="435" y="410" width="80" height="50" as="geometry" />
        </mxCell>
        <mxCell id="dc8ZZ-z_gfKn3AHlhuku-16" value="&lt;table&gt;&lt;tbody&gt;&lt;tr&gt;&lt;td&gt;Manage Museum Data&lt;/td&gt;&lt;td&gt;&lt;/td&gt;&lt;/tr&gt;&lt;/tbody&gt;&lt;/table&gt;" style="ellipse;whiteSpace=wrap;html=1;fontSize=10;" vertex="1" parent="1">
          <mxGeometry x="450" y="540" width="80" height="50" as="geometry" />
        </mxCell>
        <mxCell id="dc8ZZ-z_gfKn3AHlhuku-52" style="edgeStyle=orthogonalEdgeStyle;rounded=0;orthogonalLoop=1;jettySize=auto;html=1;exitX=1;exitY=0;exitDx=0;exitDy=0;entryX=0.5;entryY=1;entryDx=0;entryDy=0;dashed=1;" edge="1" parent="1" source="dc8ZZ-z_gfKn3AHlhuku-18" target="dc8ZZ-z_gfKn3AHlhuku-14">
          <mxGeometry relative="1" as="geometry" />
        </mxCell>
        <mxCell id="dc8ZZ-z_gfKn3AHlhuku-53" value="&amp;lt;&amp;lt;includes&amp;gt;&amp;gt;" style="edgeLabel;html=1;align=center;verticalAlign=middle;resizable=0;points=[];" vertex="1" connectable="0" parent="dc8ZZ-z_gfKn3AHlhuku-52">
          <mxGeometry x="-0.3455" y="2" relative="1" as="geometry">
            <mxPoint as="offset" />
          </mxGeometry>
        </mxCell>
        <mxCell id="dc8ZZ-z_gfKn3AHlhuku-54" style="edgeStyle=orthogonalEdgeStyle;rounded=0;orthogonalLoop=1;jettySize=auto;html=1;exitX=1;exitY=1;exitDx=0;exitDy=0;entryX=0;entryY=0.5;entryDx=0;entryDy=0;dashed=1;" edge="1" parent="1" source="dc8ZZ-z_gfKn3AHlhuku-18" target="dc8ZZ-z_gfKn3AHlhuku-16">
          <mxGeometry relative="1" as="geometry" />
        </mxCell>
        <mxCell id="dc8ZZ-z_gfKn3AHlhuku-55" value="&amp;lt;&amp;lt;includes&amp;gt;&amp;gt;" style="edgeLabel;html=1;align=center;verticalAlign=middle;resizable=0;points=[];" vertex="1" connectable="0" parent="dc8ZZ-z_gfKn3AHlhuku-54">
          <mxGeometry x="-0.2244" relative="1" as="geometry">
            <mxPoint as="offset" />
          </mxGeometry>
        </mxCell>
        <mxCell id="dc8ZZ-z_gfKn3AHlhuku-56" style="edgeStyle=orthogonalEdgeStyle;rounded=0;orthogonalLoop=1;jettySize=auto;html=1;exitX=0.5;exitY=1;exitDx=0;exitDy=0;entryX=0;entryY=1;entryDx=0;entryDy=0;dashed=1;" edge="1" parent="1" source="dc8ZZ-z_gfKn3AHlhuku-18" target="dc8ZZ-z_gfKn3AHlhuku-19">
          <mxGeometry relative="1" as="geometry" />
        </mxCell>
        <mxCell id="dc8ZZ-z_gfKn3AHlhuku-57" value="&amp;lt;&amp;lt;includes&amp;gt;&amp;gt;" style="edgeLabel;html=1;align=center;verticalAlign=middle;resizable=0;points=[];" vertex="1" connectable="0" parent="dc8ZZ-z_gfKn3AHlhuku-56">
          <mxGeometry x="-0.4019" y="-1" relative="1" as="geometry">
            <mxPoint as="offset" />
          </mxGeometry>
        </mxCell>
        <mxCell id="dc8ZZ-z_gfKn3AHlhuku-18" value="&lt;table&gt;&lt;tbody&gt;&lt;tr&gt;&lt;td&gt;Import/Export Data&lt;/td&gt;&lt;td&gt;&lt;/td&gt;&lt;/tr&gt;&lt;/tbody&gt;&lt;/table&gt;" style="ellipse;whiteSpace=wrap;html=1;fontSize=10;" vertex="1" parent="1">
          <mxGeometry x="305" y="510" width="80" height="50" as="geometry" />
        </mxCell>
        <mxCell id="dc8ZZ-z_gfKn3AHlhuku-19" value="&lt;table&gt;&lt;tbody&gt;&lt;tr&gt;&lt;td&gt;Manage Canvas Size Catalog&lt;/td&gt;&lt;td&gt;&lt;/td&gt;&lt;/tr&gt;&lt;/tbody&gt;&lt;/table&gt;" style="ellipse;whiteSpace=wrap;html=1;fontSize=10;" vertex="1" parent="1">
          <mxGeometry x="470" y="470" width="80" height="50" as="geometry" />
        </mxCell>
        <mxCell id="dc8ZZ-z_gfKn3AHlhuku-23" value="&lt;table&gt;&lt;tbody&gt;&lt;tr&gt;&lt;td&gt;View Artist Profiles&lt;/td&gt;&lt;td&gt;&lt;/td&gt;&lt;/tr&gt;&lt;/tbody&gt;&lt;/table&gt;" style="ellipse;whiteSpace=wrap;html=1;fontSize=10;" vertex="1" parent="1">
          <mxGeometry x="320" y="180" width="90" height="40" as="geometry" />
        </mxCell>
        <mxCell id="dc8ZZ-z_gfKn3AHlhuku-24" value="&lt;table&gt;&lt;tbody&gt;&lt;tr&gt;&lt;td&gt;Assign Artworks to Museums&lt;/td&gt;&lt;td&gt;&lt;/td&gt;&lt;/tr&gt;&lt;/tbody&gt;&lt;/table&gt;" style="ellipse;whiteSpace=wrap;html=1;fontSize=10;" vertex="1" parent="1">
          <mxGeometry x="370" y="300" width="90" height="40" as="geometry" />
        </mxCell>
        <mxCell id="dc8ZZ-z_gfKn3AHlhuku-58" style="edgeStyle=orthogonalEdgeStyle;rounded=0;orthogonalLoop=1;jettySize=auto;html=1;exitX=1;exitY=0.5;exitDx=0;exitDy=0;entryX=0;entryY=0.5;entryDx=0;entryDy=0;dashed=1;" edge="1" parent="1" source="dc8ZZ-z_gfKn3AHlhuku-25" target="dc8ZZ-z_gfKn3AHlhuku-28">
          <mxGeometry relative="1" as="geometry" />
        </mxCell>
        <mxCell id="dc8ZZ-z_gfKn3AHlhuku-59" value="&lt;&lt;extends&gt;&gt;" style="edgeLabel;align=center;verticalAlign=middle;resizable=0;points=[];fontSize=10;spacingLeft=1;spacingTop=0;" vertex="1" connectable="0" parent="dc8ZZ-z_gfKn3AHlhuku-58">
          <mxGeometry x="-0.0167" relative="1" as="geometry">
            <mxPoint as="offset" />
          </mxGeometry>
        </mxCell>
        <mxCell id="dc8ZZ-z_gfKn3AHlhuku-25" value="&lt;table&gt;&lt;tbody&gt;&lt;tr&gt;&lt;td&gt;Explore Museums&lt;/td&gt;&lt;td&gt;&lt;/td&gt;&lt;/tr&gt;&lt;/tbody&gt;&lt;/table&gt;" style="ellipse;whiteSpace=wrap;html=1;fontSize=10;" vertex="1" parent="1">
          <mxGeometry x="270" y="230" width="90" height="40" as="geometry" />
        </mxCell>
        <mxCell id="dc8ZZ-z_gfKn3AHlhuku-26" value="&lt;table&gt;&lt;tbody&gt;&lt;tr&gt;&lt;td&gt;Schedule Exhibitions&lt;/td&gt;&lt;td&gt;&lt;/td&gt;&lt;/tr&gt;&lt;/tbody&gt;&lt;/table&gt;" style="ellipse;whiteSpace=wrap;html=1;fontSize=10;" vertex="1" parent="1">
          <mxGeometry x="360" y="460" width="90" height="40" as="geometry" />
        </mxCell>
        <mxCell id="dc8ZZ-z_gfKn3AHlhuku-49" style="edgeStyle=orthogonalEdgeStyle;rounded=0;orthogonalLoop=1;jettySize=auto;html=1;exitX=0;exitY=1;exitDx=0;exitDy=0;entryX=1;entryY=0.5;entryDx=0;entryDy=0;dashed=1;fontSize=10;" edge="1" parent="1" source="dc8ZZ-z_gfKn3AHlhuku-27" target="dc8ZZ-z_gfKn3AHlhuku-23">
          <mxGeometry relative="1" as="geometry" />
        </mxCell>
        <mxCell id="dc8ZZ-z_gfKn3AHlhuku-50" value="&amp;lt;&amp;lt;includes&amp;gt;&amp;gt;" style="edgeLabel;html=1;align=center;verticalAlign=middle;resizable=0;points=[];fontSize=10;" vertex="1" connectable="0" parent="dc8ZZ-z_gfKn3AHlhuku-49">
          <mxGeometry x="0.0419" y="2" relative="1" as="geometry">
            <mxPoint as="offset" />
          </mxGeometry>
        </mxCell>
        <mxCell id="dc8ZZ-z_gfKn3AHlhuku-27" value="&lt;table&gt;&lt;tbody&gt;&lt;tr&gt;&lt;td&gt;Search Artworks&lt;/td&gt;&lt;td&gt;&lt;/td&gt;&lt;/tr&gt;&lt;/tbody&gt;&lt;/table&gt;" style="ellipse;whiteSpace=wrap;html=1;fontSize=10;" vertex="1" parent="1">
          <mxGeometry x="480" y="150" width="90" height="40" as="geometry" />
        </mxCell>
        <mxCell id="dc8ZZ-z_gfKn3AHlhuku-28" value="&lt;table&gt;&lt;tbody&gt;&lt;tr&gt;&lt;td&gt;Check Museum Hours&lt;/td&gt;&lt;td&gt;&lt;/td&gt;&lt;/tr&gt;&lt;/tbody&gt;&lt;/table&gt;" style="ellipse;whiteSpace=wrap;html=1;fontSize=10;" vertex="1" parent="1">
          <mxGeometry x="470" y="230" width="90" height="40" as="geometry" />
        </mxCell>
        <mxCell id="dc8ZZ-z_gfKn3AHlhuku-29" value="&lt;table&gt;&lt;tbody&gt;&lt;tr&gt;&lt;td&gt;Select Canvas Sizes&lt;/td&gt;&lt;td&gt;&lt;/td&gt;&lt;/tr&gt;&lt;/tbody&gt;&lt;/table&gt;" style="ellipse;whiteSpace=wrap;html=1;fontSize=10;" vertex="1" parent="1">
          <mxGeometry x="345" y="370" width="90" height="40" as="geometry" />
        </mxCell>
        <mxCell id="dc8ZZ-z_gfKn3AHlhuku-33" style="edgeStyle=orthogonalEdgeStyle;rounded=0;orthogonalLoop=1;jettySize=auto;html=1;entryX=0;entryY=0.5;entryDx=0;entryDy=0;fontSize=10;" edge="1" parent="1" source="dc8ZZ-z_gfKn3AHlhuku-1" target="dc8ZZ-z_gfKn3AHlhuku-23">
          <mxGeometry relative="1" as="geometry" />
        </mxCell>
        <mxCell id="dc8ZZ-z_gfKn3AHlhuku-34" style="edgeStyle=orthogonalEdgeStyle;rounded=0;orthogonalLoop=1;jettySize=auto;html=1;fontSize=10;" edge="1" parent="1" source="dc8ZZ-z_gfKn3AHlhuku-1" target="dc8ZZ-z_gfKn3AHlhuku-27">
          <mxGeometry relative="1" as="geometry" />
        </mxCell>
      </root>
    </mxGraphModel>
  </diagram>
</mxfile>
